<svg width="32" height="23" viewBox="0 0 32 23" fill="none" xmlns="http://www.w3.org/2000/svg">
<path d="M8.17499 6.125V3.5625C8.17499 2.88288 8.44496 2.2311 8.92553 1.75054C9.40609 1.26998 10.0579 1 10.7375 1H20.9875C21.6671 1 22.3189 1.26998 22.7994 1.75054C23.28 2.2311 23.55 2.88288 23.55 3.5625V18.9375C23.55 19.6171 23.28 20.2689 22.7994 20.7495C22.3189 21.23 21.6671 21.5 20.9875 21.5H11.25C9.83485 21.5 8.17499 20.3526 8.17499 18.9375V16.375" stroke="current" stroke-width="2" stroke-linecap="round" stroke-linejoin="round"/>
<path d="M14.325 16.375L19.45 11.25L14.325 6.125" stroke="current" stroke-width="2" stroke-linecap="round" stroke-linejoin="round"/>
<path d="M1 11.25H18.425" stroke="current" stroke-width="2" stroke-linecap="round" stroke-linejoin="round"/>
</svg>
