<svg width="25" height="25" viewBox="0 0 25 25" fill="none" xmlns="http://www.w3.org/2000/svg">
<path d="M20.1666 16.3333H16.7592C16.524 16.3333 16.3333 16.524 16.3333 16.7592V20.1666C16.3333 20.4019 16.524 20.5926 16.7592 20.5926H20.1666C20.4019 20.5926 20.5926 20.4019 20.5926 20.1666V16.7592C20.5926 16.524 20.4019 16.3333 20.1666 16.3333Z" fill="white"/>
<path d="M15.9074 12.9259H13.3518C13.1166 12.9259 12.9259 13.1166 12.9259 13.3518V15.9074C12.9259 16.1426 13.1166 16.3333 13.3518 16.3333H15.9074C16.1426 16.3333 16.3333 16.1426 16.3333 15.9074V13.3518C16.3333 13.1166 16.1426 12.9259 15.9074 12.9259Z" fill="white"/>
<path d="M23.5741 20.5926H21.0185C20.7833 20.5926 20.5926 20.7833 20.5926 21.0185V23.5741C20.5926 23.8093 20.7833 24 21.0185 24H23.5741C23.8093 24 24 23.8093 24 23.5741V21.0185C24 20.7833 23.8093 20.5926 23.5741 20.5926Z" fill="white"/>
<path d="M23.5741 12.9259H21.8704C21.6352 12.9259 21.4445 13.1166 21.4445 13.3518V15.0555C21.4445 15.2908 21.6352 15.4815 21.8704 15.4815H23.5741C23.8093 15.4815 24 15.2908 24 15.0555V13.3518C24 13.1166 23.8093 12.9259 23.5741 12.9259Z" fill="white"/>
<path d="M15.0555 21.4445H13.3518C13.1166 21.4445 12.9259 21.6352 12.9259 21.8704V23.5741C12.9259 23.8093 13.1166 24 13.3518 24H15.0555C15.2908 24 15.4815 23.8093 15.4815 23.5741V21.8704C15.4815 21.6352 15.2908 21.4445 15.0555 21.4445Z" fill="white"/>
<path d="M20.1666 3.55554H16.7592C16.524 3.55554 16.3333 3.74624 16.3333 3.98147V7.38888C16.3333 7.62411 16.524 7.8148 16.7592 7.8148H20.1666C20.4019 7.8148 20.5926 7.62411 20.5926 7.38888V3.98147C20.5926 3.74624 20.4019 3.55554 20.1666 3.55554Z" fill="white"/>
<path d="M22.2963 1H14.6296C14.1592 1 13.7778 1.38139 13.7778 1.85185V9.51852C13.7778 9.98898 14.1592 10.3704 14.6296 10.3704H22.2963C22.7668 10.3704 23.1481 9.98898 23.1481 9.51852V1.85185C23.1481 1.38139 22.7668 1 22.2963 1Z" stroke="white" stroke-width="2" stroke-linecap="round" stroke-linejoin="round"/>
<path d="M7.38888 3.55554H3.98147C3.74624 3.55554 3.55554 3.74624 3.55554 3.98147V7.38888C3.55554 7.62411 3.74624 7.8148 3.98147 7.8148H7.38888C7.62411 7.8148 7.8148 7.62411 7.8148 7.38888V3.98147C7.8148 3.74624 7.62411 3.55554 7.38888 3.55554Z" fill="white"/>
<path d="M9.51852 1H1.85185C1.38139 1 1 1.38139 1 1.85185V9.51852C1 9.98898 1.38139 10.3704 1.85185 10.3704H9.51852C9.98898 10.3704 10.3704 9.98898 10.3704 9.51852V1.85185C10.3704 1.38139 9.98898 1 9.51852 1Z" stroke="white" stroke-width="2" stroke-linecap="round" stroke-linejoin="round"/>
<path d="M7.38888 16.3333H3.98147C3.74624 16.3333 3.55554 16.524 3.55554 16.7592V20.1666C3.55554 20.4019 3.74624 20.5926 3.98147 20.5926H7.38888C7.62411 20.5926 7.8148 20.4019 7.8148 20.1666V16.7592C7.8148 16.524 7.62411 16.3333 7.38888 16.3333Z" fill="white"/>
<path d="M9.51852 13.7778H1.85185C1.38139 13.7778 1 14.1592 1 14.6296V22.2963C1 22.7668 1.38139 23.1481 1.85185 23.1481H9.51852C9.98898 23.1481 10.3704 22.7668 10.3704 22.2963V14.6296C10.3704 14.1592 9.98898 13.7778 9.51852 13.7778Z" stroke="white" stroke-width="2" stroke-linecap="round" stroke-linejoin="round"/>
</svg>
